<?xml version="1.0" encoding="utf-8"?>
<!-- Generator: Adobe Illustrator 19.2.1, SVG Export Plug-In . SVG Version: 6.00 Build 0)  -->
<svg version="1.1" id="Layer_1" xmlns="http://www.w3.org/2000/svg" xmlns:xlink="http://www.w3.org/1999/xlink" x="0px" y="0px"
	 viewBox="0 0 1280 1024" style="enable-background:new 0 0 1280 1024;" xml:space="preserve">
<style type="text/css">
	.st0{fill:#F7931E;stroke:#F7931E;stroke-width:2;stroke-miterlimit:10;}
	.st1{fill:#FFFFFF;stroke:#FFFFFF;stroke-miterlimit:10;}
	.st2{stroke:#000000;stroke-miterlimit:10;}
	.st3{fill:#F7931E;}
</style>
<path class="st0" d="M657.7,482.3C507.9,479.7,477,25.5,283.6,4.8C171.2-7.3,47.3,131.6,14.3,261.6
	c-50.3,198.3,111.9,373.7,235.2,509c114.7,125.8,230.6,252.9,399.7,253.5c177,0.6,299.5-138,401.6-253.5
	c102.8-116.3,264.5-299.1,218-511c-25.2-114.9-118-259.7-218-257.5C870.2,6,811.8,485,657.7,482.3z"/>
<ellipse class="st1" cx="332.7" cy="422" rx="112.9" ry="146.6"/>
<ellipse class="st1" cx="987.1" cy="422" rx="112.9" ry="146.6"/>
<ellipse class="st2" cx="365.9" cy="422.9" rx="33.2" ry="38.8"/>
<ellipse class="st2" cx="988.3" cy="416.8" rx="33.2" ry="38.8"/>
<g>
	<path class="st3" d="M823.2,659.9c-19.4,74.6-85.7,126.2-158.6,125.9c-63.3-0.3-121.8-39.6-148.3-100"/>
	<g>
		<path d="M808.7,655.9c-1.7,6.3-3.7,12.6-6,18.7c-0.2,0.6-1.9,4.7-0.9,2.4c-0.6,1.3-1.1,2.6-1.7,3.9c-1.5,3.2-3.1,6.4-4.8,9.5
			c-3,5.6-6.3,11-9.9,16.2c-0.8,1.1-1.6,2.3-2.4,3.4c-0.5,0.8-1.1,1.5-1.7,2.2c0.2-0.2,1.3-1.6,0.2-0.3c-2,2.5-4.1,5-6.2,7.5
			c-4.1,4.7-8.5,9.1-13.1,13.2c-2.4,2.2-4.8,4.2-7.3,6.2c-0.6,0.5-3.2,2.5-1.3,1c-1.5,1.1-2.9,2.2-4.4,3.2c-5,3.5-10.2,6.8-15.6,9.8
			c-2.6,1.4-5.2,2.8-7.9,4.1c-1.4,0.7-2.9,1.4-4.3,2c-0.6,0.3-1.2,0.6-1.9,0.8c1.4-0.6,1-0.4-0.2,0.1c-11.7,4.6-23.7,7.9-36.1,9.7
			c-1.8,0.3,0.3-0.1,0.6-0.1c-0.9,0.1-1.8,0.2-2.7,0.3c-1.4,0.1-2.7,0.3-4.1,0.4c-3.2,0.2-6.5,0.4-9.7,0.4c-6.7,0.1-13.3-0.3-19.9-1
			c-2.9-0.3,1.2,0.2-1.6-0.2c-1.6-0.3-3.3-0.5-4.9-0.8c-3.2-0.6-6.5-1.3-9.7-2.1c-6.2-1.6-12.2-3.5-18.1-5.8c-0.7-0.3-1.3-0.5-2-0.8
			c-0.3-0.1-3-1.3-1.5-0.6c1,0.4-2.1-1-2.7-1.2c-3-1.4-5.9-2.9-8.8-4.4c-5.8-3.1-11.4-6.6-16.8-10.4c-1.4-1-2.7-1.9-4-2.9
			c-2.4-1.8-0.8-0.7-0.3-0.3c-0.7-0.6-1.5-1.2-2.2-1.8c-2.8-2.3-5.4-4.6-8.1-7c-5.4-5.1-10.5-10.5-15.2-16.2
			c-0.5-0.6-0.9-1.1-1.4-1.7c-0.3-0.3-2.2-2.9-0.8-1c-1-1.4-2-2.7-3-4.1c-2.1-3-4.1-6-6-9.1c-4.1-6.7-7.8-13.8-11-21
			c-3.3-7.4-14.1-9.1-20.5-5.4c-7.6,4.5-8.7,13.1-5.4,20.5c23.5,52.8,73,94,130.3,104.4c57,10.4,115.6-8.8,156.3-49.9
			c22.9-23.2,39.4-52.4,47.7-83.9c2-7.6-2.5-16.6-10.5-18.5C819.3,643.7,810.9,647.8,808.7,655.9L808.7,655.9z"/>
	</g>
</g>
</svg>
